<?xml version="1.0" encoding="utf-8"?>
<!-- Generator: Adobe Illustrator 22.1.0, SVG Export Plug-In . SVG Version: 6.00 Build 0)  -->
<svg version="1.1" id="Layer_1" xmlns="http://www.w3.org/2000/svg" xmlns:xlink="http://www.w3.org/1999/xlink" x="0px" y="0px"
	 viewBox="0 0 1366 768" style="enable-background:new 0 0 1366 768;" xml:space="preserve">
<style type="text/css">
	.st0{display:none;fill:#FEFEFE;stroke:#170001;stroke-miterlimit:10;}
	.st1{fill:#3870B7;stroke:#170001;stroke-miterlimit:10;}
	.st2{fill:#B00007;}
	.st3{fill:#FFFFFF;stroke:#170001;stroke-miterlimit:10;}
	.st4{fill:#FDFFFD;stroke:#170001;stroke-miterlimit:10;}
</style>
<g>
	<path class="st0" d="M687.3,10.5c223.7,0,447.4,0,671.1-0.1c2.5,0,3,0.6,3,3c-0.1,250.9-0.1,501.8,0,752.7c0,2.5-0.6,3-3,3
		c-447.4-0.1-894.9-0.1-1342.3,0c-2.5,0-3-0.6-3-3c0.1-250.9,0.1-501.8,0-752.7c0-2.5,0.6-3,3-3C239.8,10.5,463.6,10.5,687.3,10.5z
		 M333.3,391.6c-29.9,0-59.9,0.1-89.8-0.1c-3.1,0-3.8,0.9-3.8,3.9c0.1,34.1,0.1,68.2,0,102.3c0,3,0.9,3.6,3.7,3.6
		c32.3-0.1,64.7-0.1,97-0.1c4.9,0,9.8-0.3,14.7-1c50.3-7,83.9-56.4,71.9-105.7c-0.6-2.4-1.7-3-4-3
		C393.1,391.6,363.2,391.6,333.3,391.6z M144.8,501.1c25.1,0,50.2,0,75.3,0c2.5,0,3.4-0.4,3.4-3.2c-0.1-34.4-0.1-68.8,0-103.3
		c0-2.4-0.6-3.1-3.1-3.1c-48.1,0.1-96.2,0.1-144.4,0c-2.3,0-3.3,0.8-4.1,2.7c-4,9.6-6.1,19.6-6.1,30.1c0,24.4,0,48.9-0.1,73.3
		c0,2.7,0.5,3.5,3.4,3.5C94.3,501.1,119.6,501.1,144.8,501.1z M329.7,375.3c28.7,0,57.4,0,86.2,0c4,0,4.1,0,2-3.6
		c-7.3-12.4-17-22.5-29.3-30.1c-16.1-9.9-33.5-14.3-52.4-12.7c-3,0.3-3.9-0.5-3.9-3.5c0-6.3-1.2-12.4-2.6-18.5
		c-8.9-39.8-46.1-72.7-86.4-76.7c-2.9-0.3-3.4,0.4-3.4,3.1c0.1,46.2,0.1,92.3,0,138.5c0,2.9,0.8,3.6,3.7,3.6
		C272.2,375.3,300.9,375.3,329.7,375.3z M821.8,414.8c-0.2,0-0.3,0.1-0.5,0.1c-0.5-1.2-1-2.3-1.4-3.5
		c-13.3-36.7-26.6-73.4-39.7-110.1c-1-2.8-2.3-3.6-5.1-3.5c-6.3,0.2-12.7,0.3-19.1,0c-3.3-0.1-4.4,0.6-4.4,4.2
		c0.1,62.2,0.1,124.3,0.1,186.5c0,0.7,0.1,1.3,0,2c-0.3,1.9,0.6,2.4,2.4,2.3c7.3-0.1,14.7-0.2,22,0c2.9,0.1,3.8-0.6,3.8-3.7
		c-0.1-36.6-0.1-73.2-0.1-109.8c0-1,0-2,0-3.1c1,0.9,1.4,1.8,1.8,2.8c13.6,36.9,27.2,73.9,40.7,110.8c0.8,2.1,1.6,3.1,4.1,3
		c7-0.2,14-0.1,21,0c2,0,2.6-0.4,2.6-2.5c-0.1-63.3-0.1-126.5,0-189.8c0-2.3-0.8-2.7-2.8-2.7c-7.3,0.1-14.7,0.2-22,0
		c-3-0.1-3.5,0.8-3.5,3.6c0.1,36.6,0.1,73.2,0.1,109.8C821.8,412.5,821.8,413.6,821.8,414.8z M84.1,375.2c0.8,0.1,1.3,0.2,1.8,0.2
		c44.9,0,89.9,0,134.8,0c2.2,0,2.8-0.7,2.8-2.8c-0.1-46.8-0.1-93.6,0-140.4c0-2.3-0.8-2.7-2.9-2.5c-9.7,1.1-19.2,3.3-28.3,6.9
		c-43.6,17.2-69.8,61.8-63.2,108c0.5,3.4-0.3,4.1-3.3,4.8c-13.7,3-25.6,9.5-35.8,19C87.9,370.4,85.7,372.3,84.1,375.2z M618.3,492.8
		c0.4-1.5-0.4-2.5-0.8-3.6c-9.3-27.2-18.5-54.4-27.9-81.6c-0.9-2.7-0.8-4.1,1.9-5.7c8.8-5.2,14.7-12.9,17.8-22.8
		c4.4-14.5,4.3-29.2,1.5-43.9c-1.8-9.7-5.6-18.4-12.8-25.4c-8.4-8.1-18.9-11.4-30.2-11.7c-15.9-0.4-31.8-0.1-47.7-0.3
		c-2.3,0-2.4,1-2.4,2.7c0,63.2,0,126.3,0,189.5c0,2.4,0.8,2.8,3,2.8c7.1-0.1,14.3-0.3,21.4,0c3.5,0.2,4-1,4-4.2
		c-0.1-25.3,0-50.7-0.1-76c0-2.6,0.7-3.4,3.3-3.2c3.4,0.2,6.8,0.2,10.2,0c2.5-0.2,3.7,0.6,4.4,3.1c2.8,9.3,5.7,18.6,8.7,27.9
		c5.2,16.6,10.5,33.2,15.7,49.7c0.4,1.3,0.5,2.6,2.6,2.6C600,492.7,609.2,492.8,618.3,492.8z M727.9,395.4c0,0,0.1,0,0.1,0
		c0-16.7,0-33.3,0-50c0-5.6-0.4-11.2-2-16.6c-6.5-22-28-35.1-52.3-32.1c-22.6,2.8-39.7,21.2-39.9,44.3c-0.4,36.3-0.1,72.6-0.1,108.8
		c0,5.2,1.1,10.2,2.9,15.1c8.1,21.5,32.1,33.7,55.2,28.2c21.5-5.1,35.2-21,35.9-43.2C728.4,431.8,727.9,413.6,727.9,395.4z
		 M990.2,395.2c0,4.1,0,8.1,0,12.2c0.1,15.9,0.1,31.8,2.7,47.5c1.7,9.9,4.9,19.1,11.9,26.5c11.5,12.2,26,15.2,41.8,12.9
		c17.4-2.6,28.9-12.6,34.5-29.3c2.3-6.8,3.2-13.8,3.8-20.9c1.7-20.7,1.3-41.4,1.2-62.1c-0.1-15.3-0.3-30.7-2.5-45.9
		c-3.6-24.3-19-38.7-43.2-40.2c-21.6-1.3-39.1,10.5-45.4,30.8c-2,6.3-2.9,12.8-3.5,19.3C990,362.3,990.3,378.7,990.2,395.2z
		 M1155.9,452.2c-0.3,0-0.5,0-0.8,0c-0.4-2.3-0.9-4.6-1.3-6.9c-6.5-35.8-13-71.5-19.5-107.3c-2.3-12.5-4.5-25-6.8-37.5
		c-0.2-1.1,0.2-2.8-1.9-2.8c-8.2,0.1-16.4,0-24.8,0c3.1,14.3,6.2,28.3,9.2,42.3c10.9,49.9,21.8,99.8,32.6,149.7
		c0.5,2.4,1.5,2.9,3.7,2.8c5.7-0.1,11.4-0.3,17.1,0c3.5,0.2,4.5-1,5.2-4.3c6.1-28.8,12.5-57.5,18.7-86.3c7.4-34,14.8-68,22.2-102
		c0.4-1.8,0.5-2.5-1.7-2.5c-7.2,0.1-14.5,0.1-21.7,0c-1.7,0-2.2,0.6-2.5,2.2c-3.4,19.2-7,38.3-10.5,57.5
		C1167.4,389.2,1161.7,420.7,1155.9,452.2z M1228.8,395.3c0,31.5,0,62.9,0,94.4c0,1.8-0.2,3.2,2.6,3.2c23.7-0.1,47.4-0.1,71,0
		c1.8,0,2.4-0.4,2.4-2.3c-0.1-5.3-0.2-10.5,0-15.8c0.1-2.4-0.5-3.1-3-3.1c-15.2,0.1-30.5,0-45.7,0.1c-2.6,0-3.5-0.4-3.5-3.3
		c0.1-19.9,0.1-39.9,0-59.9c0-2.6,0.6-3.3,3.2-3.3c12.8,0.1,25.7,0,38.5,0.1c2.9,0,3.4-0.8,3.3-3.5c-0.2-4.8-0.2-9.6,0-14.5
		c0.1-2.4-0.4-3.4-3.1-3.3c-12.9,0.2-25.9,0-38.8,0.1c-2.4,0-3.1-0.6-3.1-3c0.1-19.7,0.1-39.5,0-59.2c0-2.7,0.8-3.2,3.3-3.2
		c15.3,0.1,30.7,0,46,0.1c2.3,0,3-0.5,2.9-2.9c-0.2-5-0.2-10.1,0-15.1c0.1-2.6-0.6-3.2-3.2-3.2c-23,0.1-46,0.1-69.1,0
		c-2.9,0-3.8,0.6-3.8,3.7C1228.9,332.8,1228.8,364.1,1228.8,395.3z M875.1,399.3c0.1,15.8-0.3,35.6,2.6,55.2
		c3.4,22.5,16.8,37.1,38.1,40c14.7,2,28.5-0.4,39.3-11.8c9.5-10.1,12.7-22.7,13.4-36.1c0.1-1.9-0.9-1.8-2.2-1.8
		c-6.4,0-12.7,0.1-19.1,0c-2.1-0.1-2.5,0.7-2.5,2.6c-0.2,5.4-1.2,10.7-3.7,15.5c-3.9,7.5-10,11.3-18.6,11.1
		c-8.4-0.2-14.3-4.1-17.9-11.7c-2.9-6.2-3.9-12.8-4.4-19.4c-2.1-31.7-2.1-63.3,0-95c0.4-6.8,1.5-13.5,4.6-19.7
		c3.8-7.8,10.3-11.3,18.9-11.2c8.7,0.2,14.7,4.3,18,12.3c2,4.7,2.6,9.7,2.8,14.8c0.1,1.7,0.6,2.2,2.3,2.2c4.5-0.1,9,0,13.5,0
		c8.3,0,8.4,0,7.5-8.1c-2.8-25.1-17.4-41.2-42.6-42.4c-21.8-1-39.2,10.9-45.4,31.4c-1.9,6.3-2.8,12.8-3.4,19.4
		C875,362.7,875.1,379.1,875.1,399.3z M462.4,395.3c0,31.5,0,62.9-0.1,94.4c0,2.6,0.6,3.3,3.2,3.2c7.3-0.2,14.7-0.1,22,0
		c2.2,0,3-0.5,3-2.8c-0.1-63.1-0.1-126.3,0-189.4c0-2.1-0.6-2.8-2.7-2.7c-7.2,0.1-14.5,0.2-21.7,0c-2.9-0.1-3.8,0.6-3.8,3.7
		C462.4,332.8,462.4,364,462.4,395.3z M1230.5,525.6c0.2-0.1,0.4-0.1,0.6-0.2c2.4,3.5,4.7,7.1,7.1,10.6c2.4,3.6,4.8,7.1,7,10.7
		c1.3,2,3.1,1.4,4.7,1.1c1.6-0.2,0.8-1.8,0.8-2.7c0.1-9.4,0-18.8,0.1-28.3c0-1.5-0.1-2.3-2-2.4c-2.5-0.1-3.3,0.6-3.2,3.2
		c0.2,6.4,0.1,12.8,0.1,20c-1.2-1.7-1.8-2.6-2.4-3.4c-4.1-6.1-8.2-12.2-12.1-18.3c-1.3-2-3.1-1.4-4.7-1.3c-1.9,0.1-1.1,1.9-1.1,2.9
		c-0.1,9.2,0,18.4-0.1,27.6c0,1.9,0.1,3,2.5,3c2.6,0,2.7-1.1,2.7-3.1C1230.4,538.5,1230.5,532,1230.5,525.6z M915.3,531.1
		C915.2,531.1,915.2,531.1,915.3,531.1c0-2.2,0.1-4.4-0.1-6.6c-0.6-6.2-5.4-10.3-11.9-10.3c-6.3,0-11.1,4-11.8,10
		c-0.6,4.6-0.6,9.2,0,13.8c0.8,6.5,5.7,10.4,12.6,10.2c6.3-0.3,10.8-4.7,11.2-11.1C915.3,535.1,915.3,533.1,915.3,531.1z
		 M1189,531.1c-0.2-2.5,0.2-5.3-0.5-8c-1.3-5.4-5.9-8.9-11.8-8.9c-5.9,0.1-10.6,3.7-11.5,9.2c-0.8,5.1-0.8,10.3,0,15.4
		c0.9,5.6,5.5,9.2,11.4,9.3c6.2,0.1,10.8-3.4,12-9C1189.2,536.5,1188.9,533.9,1189,531.1z M1011.9,526.9
		C1011.9,526.9,1011.8,526.9,1011.9,526.9c0-3.3-0.1-6.6,0-9.9c0.1-2.1-0.6-2.6-2.6-2.6c-1.8,0.1-2.7,0.1-2.7,2.4
		c0.2,6.6,0,13.1,0.1,19.7c0.1,6.7,4.6,11.3,11.3,11.6c7.2,0.3,12.4-3.9,12.8-10.7c0.3-7,0.1-14,0.1-21c0-1.4-0.5-1.8-1.9-1.9
		c-2.3-0.1-3.5,0.2-3.4,3.1c0.3,6.3,0.2,12.7,0,19c-0.1,4.4-2.9,7-7,7c-4.1,0-6.6-2.5-6.8-6.8
		C1011.8,533.4,1011.9,530.1,1011.9,526.9z M855.4,517.9c-4.6-4-9.8-4.6-15.3-2.8c-4.2,1.3-6.5,4.9-6.3,9.3c0.2,4.3,2.5,7.2,7.1,8.3
		c1.9,0.5,3.9,0.6,5.8,0.9c2.8,0.4,4.8,1.5,4.9,4.7c0,2.8-1.7,4.7-4.9,5.1c-3.3,0.4-6.6,0.1-9.4-2.1c-2.1-1.6-2.6,0.7-3.6,1.5
		c-1.6,1.2,0,1.9,0.8,2.4c4.4,3.2,9.3,3.6,14.4,2.4c5.3-1.3,8.1-4.9,7.9-9.8c-0.2-4.9-3.1-7.8-8.6-8.7c-2-0.3-4.1-0.6-6.1-1.2
		c-2-0.5-3.1-1.9-3.1-4.1c0-2.2,1-3.8,3.1-4.6c2.6-1,5.5-1.1,7.6,0.4C852.4,521.7,853.7,520.1,855.4,517.9z M1297,548.1
		c1.7,0.1,3.7-0.1,5.5-0.8c4.5-1.5,7-5,6.8-9.7c-0.2-4.5-2.8-7.4-7.7-8.5c-1.9-0.4-3.9-0.5-5.8-1c-2.4-0.6-4.4-1.6-4.3-4.5
		c0.1-2.9,1.8-4.4,4.4-4.9c2.8-0.6,5.5-0.1,7.8,1.5c2.1,1.5,2.7-0.8,3.6-1.6c1.5-1.4-0.4-1.8-1.1-2.2c-4.3-2.7-8.9-3-13.5-1.4
		c-4.2,1.4-6.5,5-6.3,9.4c0.2,4.3,2.6,7.2,7.1,8.3c1.8,0.4,3.7,0.6,5.5,0.9c2.9,0.4,5.1,1.4,5.1,4.8c0,2.9-1.9,4.7-5.3,5.1
		c-3.1,0.3-6.2,0.1-8.7-2c-2.2-1.8-2.9,0.5-3.8,1.4c-1.6,1.5,0.4,2,1.2,2.6C1290.2,547.5,1293.4,548.2,1297,548.1z M956.8,528.9
		c0-4.1-0.1-8.1,0.1-12.2c0.1-2.1-0.8-2.4-2.5-2.2c-1.4,0.1-2.8-0.3-2.7,2c0.1,9.7,0.1,19.5,0,29.2c0,1.7,0.6,2.3,2.3,2.2
		c5.7-0.1,11.4-0.1,17.1,0c2.2,0.1,2-1.1,2.2-2.6c0.2-2-0.8-2.1-2.4-2c-3.6,0.1-7.2-0.2-10.8,0.1c-2.7,0.2-3.4-0.8-3.2-3.4
		C957,536.3,956.8,532.6,956.8,528.9z M1076.8,514.5c-3.2,0-6.4,0.1-9.5,0c-1.9-0.1-2.4,0.6-2.4,2.4c0,2,0.8,2.4,2.5,2.3
		c1.3-0.1,2.6,0.1,3.9-0.1c2.2-0.3,3,0.5,2.9,2.8c-0.2,7.9,0,15.8-0.1,23.6c0,1.8,0.4,2.6,2.4,2.5c1.7-0.1,2.9-0.1,2.8-2.4
		c-0.1-6.1-0.1-12.3,0-18.4c0-2.6-1.1-5.8,0.5-7.6c1.3-1.6,4.5-0.5,6.9-0.5c2.1,0,1.8-1.3,1.9-2.6c0.1-1.5-0.2-2.2-1.9-2.1
		C1083.4,514.6,1080.1,514.5,1076.8,514.5z M1128.4,531.3c0-4.8-0.1-9.7,0.1-14.5c0.1-2.4-1.1-2.3-2.8-2.3c-1.6,0-2.6,0.1-2.5,2.2
		c0.1,9.6,0.1,19.3,0,28.9c0,2.3,1,2.3,2.8,2.4c2.1,0.1,2.6-0.6,2.5-2.6C1128.3,540.7,1128.4,536,1128.4,531.3z"/>
	<path class="st1" d="M333.3,391.6c29.9,0,59.9,0,89.8-0.1c2.3,0,3.4,0.6,4,3c12,49.3-21.6,98.7-71.9,105.7c-4.9,0.7-9.8,1-14.7,1
		c-32.3,0-64.7,0-97,0.1c-2.8,0-3.7-0.6-3.7-3.6c0.1-34.1,0.1-68.2,0-102.3c0-2.9,0.6-3.9,3.8-3.9
		C273.4,391.7,303.3,391.6,333.3,391.6z"/>
	<path class="st2" d="M144.8,501.1c-25.2,0-50.4-0.1-75.6,0.1c-2.8,0-3.4-0.8-3.4-3.5c0.1-24.4,0.1-48.9,0.1-73.3
		c0-10.4,2.1-20.4,6.1-30.1c0.8-2,1.8-2.7,4.1-2.7c48.1,0.1,96.2,0.1,144.4,0c2.5,0,3.1,0.7,3.1,3.1c-0.1,34.4-0.1,68.8,0,103.3
		c0,2.8-0.9,3.2-3.4,3.2C195,501.1,169.9,501.1,144.8,501.1z"/>
	<path class="st1" d="M329.7,375.3c-28.7,0-57.4,0-86.2,0.1c-2.9,0-3.7-0.7-3.7-3.6c0.1-46.2,0.1-92.3,0-138.5
		c0-2.7,0.5-3.4,3.4-3.1c40.3,4,77.5,36.9,86.4,76.7c1.4,6.1,2.6,12.2,2.6,18.5c0,3.1,0.9,3.8,3.9,3.5c18.8-1.6,36.3,2.9,52.4,12.7
		c12.3,7.5,22,17.6,29.3,30.1c2.1,3.6,2.1,3.6-2,3.6C387.1,375.3,358.4,375.3,329.7,375.3z"/>
	<path class="st3" d="M821.8,414.8c0-1.2,0-2.3,0-3.5c0-36.6,0-73.2-0.1-109.8c0-2.8,0.5-3.7,3.5-3.6c7.3,0.3,14.7,0.1,22,0
		c2,0,2.8,0.4,2.8,2.7c-0.1,63.3-0.1,126.5,0,189.8c0,2.1-0.6,2.6-2.6,2.5c-7-0.1-14-0.2-21,0c-2.5,0.1-3.3-0.9-4.1-3
		c-13.5-37-27.1-73.9-40.7-110.8c-0.4-1-0.8-1.9-1.8-2.8c0,1,0,2,0,3.1c0,36.6,0,73.2,0.1,109.8c0,3.1-0.9,3.8-3.8,3.7
		c-7.3-0.2-14.7-0.1-22,0c-1.8,0-2.7-0.4-2.4-2.3c0.1-0.6,0-1.3,0-2c0-62.2,0-124.3-0.1-186.5c0-3.6,1.1-4.3,4.4-4.2
		c6.3,0.3,12.7,0.2,19.1,0c2.9-0.1,4.1,0.7,5.1,3.5c13.2,36.7,26.5,73.4,39.7,110.1c0.4,1.2,0.9,2.3,1.4,3.5
		C821.5,414.9,821.7,414.8,821.8,414.8z"/>
	<path class="st1" d="M84.1,375.2c1.6-2.9,3.9-4.8,6-6.8c10.2-9.5,22.2-16,35.8-19c3.1-0.7,3.8-1.5,3.3-4.8
		c-6.6-46.3,19.6-90.8,63.2-108c9.1-3.6,18.6-5.8,28.3-6.9c2.1-0.2,2.9,0.1,2.9,2.5c-0.1,46.8-0.1,93.6,0,140.4
		c0,2.2-0.6,2.8-2.8,2.8c-44.9-0.1-89.9,0-134.8,0C85.4,375.4,84.9,375.3,84.1,375.2z"/>
	<path class="st3" d="M618.3,492.8c-9.2,0-18.4-0.1-27.6,0c-2.1,0-2.2-1.3-2.6-2.6c-5.2-16.6-10.5-33.2-15.7-49.7
		c-2.9-9.3-5.9-18.5-8.7-27.9c-0.7-2.5-1.9-3.2-4.4-3.1c-3.4,0.2-6.8,0.2-10.2,0c-2.6-0.2-3.3,0.6-3.3,3.2c0.1,25.3,0,50.7,0.1,76
		c0,3.2-0.5,4.3-4,4.2c-7.1-0.3-14.3-0.2-21.4,0c-2.2,0-3-0.4-3-2.8c0.1-63.2,0.1-126.3,0-189.5c0-1.8,0.1-2.7,2.4-2.7
		c15.9,0.1,31.8-0.1,47.7,0.3c11.3,0.3,21.8,3.6,30.2,11.7c7.2,7,11,15.7,12.8,25.4c2.8,14.7,2.9,29.4-1.5,43.9
		c-3,9.9-8.9,17.5-17.8,22.8c-2.7,1.6-2.8,3-1.9,5.7c9.4,27.2,18.7,54.4,27.9,81.6C618,490.3,618.7,491.4,618.3,492.8z M546,354.3
		c0,9.4,0,18.8,0,28.3c0,1.8,0.4,2.4,2.3,2.4c5.5-0.1,11,0.1,16.4-0.1c10.6-0.4,16.7-5.3,18.6-15.5c1.8-9.8,1.8-19.6,0-29.4
		c-1.6-8.9-6.5-13.5-15.4-15.1c-6.2-1.1-12.5-0.3-18.7-0.6c-2.5-0.1-3.4,0.4-3.3,3.1C546.1,336.4,546,345.3,546,354.3z"/>
	<path class="st3" d="M727.9,395.4c0,18.2,0.5,36.4-0.1,54.6c-0.7,22.2-14.4,38-35.9,43.2c-23.1,5.5-47.1-6.7-55.2-28.2
		c-1.8-4.9-2.9-9.9-2.9-15.1c-0.1-36.3-0.3-72.6,0.1-108.8c0.2-23,17.3-41.4,39.9-44.3c24.4-3,45.8,10.1,52.3,32.1
		c1.6,5.4,2,11,2,16.6c0,16.7,0,33.3,0,50C728,395.4,728,395.4,727.9,395.4z M661.9,395.1C661.9,395.1,661.9,395.1,661.9,395.1
		c0,17.6-0.1,35.3,0,52.9c0.1,10.8,7.1,18,17.7,18.5c11,0.5,18.7-5.8,20-16.4c0.3-2.1,0.3-4.2,0.3-6.2c0-29.3,0-58.5,0-87.8
		c0-4.3,0.1-8.5-0.1-12.8c-0.2-5.6-1.4-10.9-6.2-14.6c-6.7-5.1-14.1-5.7-21.7-2.4c-7.5,3.3-10.1,9.5-10.1,17.3
		C661.9,360.7,661.9,377.9,661.9,395.1z"/>
	<path class="st3" d="M990.2,395.2c0.1-16.4-0.2-32.9,1.3-49.3c0.6-6.5,1.6-13,3.5-19.3c6.3-20.2,23.8-32.1,45.4-30.8
		c24.2,1.5,39.6,15.9,43.2,40.2c2.3,15.2,2.4,30.6,2.5,45.9c0.1,20.7,0.5,41.4-1.2,62.1c-0.6,7.1-1.5,14.1-3.8,20.9
		c-5.6,16.7-17.1,26.7-34.5,29.3c-15.9,2.3-30.3-0.6-41.8-12.9c-7-7.5-10.3-16.7-11.9-26.5c-2.6-15.7-2.6-31.6-2.7-47.5
		C990.2,403.3,990.2,399.2,990.2,395.2z M1014,397.7c-0.1,10.8,0,24,0.7,37.1c0.5,8.4,1,16.9,4,24.9c3.4,9.4,9.8,14,19.2,14.1
		c9.8,0.1,16.1-4.3,19.8-13.7c2.3-5.9,3.2-12.1,3.6-18.3c1.9-31,1.9-62,0-93c-0.4-6.5-1.4-13.1-4-19.2c-3.5-8.3-9.7-12.7-18.8-12.8
		c-9.2-0.1-15.5,4.1-19.2,12.7c-2.5,5.9-3.4,12.2-3.9,18.5C1013.9,363.8,1013.9,379.6,1014,397.7z"/>
	<path class="st3" d="M1155.9,452.2c5.8-31.5,11.5-63.1,17.3-94.6c3.5-19.2,7-38.3,10.5-57.5c0.3-1.6,0.8-2.2,2.5-2.2
		c7.2,0.1,14.5,0.1,21.7,0c2.2,0,2.1,0.7,1.7,2.5c-7.5,34-14.8,68-22.2,102c-6.3,28.8-12.6,57.5-18.7,86.3c-0.7,3.3-1.7,4.5-5.2,4.3
		c-5.7-0.4-11.4-0.2-17.1,0c-2.2,0.1-3.1-0.4-3.7-2.8c-10.8-49.9-21.7-99.8-32.6-149.7c-3.1-14-6.1-28-9.2-42.3c8.4,0,16.6,0,24.8,0
		c2.2,0,1.8,1.7,1.9,2.8c2.3,12.5,4.5,25,6.8,37.5c6.5,35.8,13,71.5,19.5,107.3c0.4,2.3,0.9,4.6,1.3,6.9
		C1155.4,452.3,1155.6,452.3,1155.9,452.2z"/>
	<path class="st3" d="M1228.8,395.3c0-31.2,0.1-62.5-0.1-93.7c0-3.1,0.9-3.7,3.8-3.7c23,0.1,46,0.1,69.1,0c2.6,0,3.3,0.7,3.2,3.2
		c-0.2,5-0.2,10.1,0,15.1c0.1,2.4-0.7,2.9-2.9,2.9c-15.3-0.1-30.7,0-46-0.1c-2.5,0-3.3,0.5-3.3,3.2c0.1,19.7,0.1,39.5,0,59.2
		c0,2.5,0.6,3.1,3.1,3c12.9-0.1,25.9,0,38.8-0.1c2.7,0,3.2,0.9,3.1,3.3c-0.2,4.8-0.2,9.7,0,14.5c0.1,2.6-0.5,3.5-3.3,3.5
		c-12.8-0.2-25.7,0-38.5-0.1c-2.6,0-3.3,0.7-3.2,3.3c0.1,20,0.1,39.9,0,59.9c0,2.9,1,3.3,3.5,3.3c15.2-0.1,30.5,0,45.7-0.1
		c2.5,0,3.1,0.6,3,3.1c-0.2,5.3-0.1,10.5,0,15.8c0,1.9-0.6,2.3-2.4,2.3c-23.7-0.1-47.4-0.1-71,0c-2.8,0-2.6-1.4-2.6-3.2
		C1228.9,458.2,1228.8,426.8,1228.8,395.3z"/>
	<path class="st3" d="M875.1,399.3c0-20.2-0.1-36.6,1.3-52.9c0.6-6.6,1.5-13.1,3.4-19.4c6.2-20.5,23.7-32.3,45.4-31.4
		c25.2,1.1,39.8,17.3,42.6,42.4c0.9,8,0.7,8.1-7.5,8.1c-4.5,0-9-0.1-13.5,0c-1.7,0-2.2-0.5-2.3-2.2c-0.2-5-0.8-10-2.8-14.8
		c-3.4-8-9.3-12.2-18-12.3c-8.6-0.2-15,3.3-18.9,11.2c-3,6.2-4.1,13-4.6,19.7c-2.1,31.7-2.1,63.3,0,95c0.4,6.7,1.5,13.3,4.4,19.4
		c3.6,7.6,9.5,11.5,17.9,11.7c8.6,0.2,14.7-3.6,18.6-11.1c2.5-4.9,3.5-10.1,3.7-15.5c0.1-1.9,0.4-2.7,2.5-2.6
		c6.4,0.2,12.7,0.1,19.1,0c1.3,0,2.3-0.1,2.2,1.8c-0.7,13.5-3.9,26-13.4,36.1c-10.8,11.4-24.7,13.8-39.3,11.8
		c-21.3-2.9-34.7-17.4-38.1-40C874.8,434.9,875.3,415.1,875.1,399.3z"/>
	<path class="st4" d="M462.4,395.3c0-31.2,0.1-62.5-0.1-93.7c0-3.1,0.9-3.8,3.8-3.7c7.2,0.2,14.5,0.1,21.7,0c2.2,0,2.7,0.6,2.7,2.7
		c-0.1,63.1-0.1,126.3,0,189.4c0,2.4-0.7,2.9-3,2.8c-7.3-0.1-14.7-0.2-22,0c-2.6,0.1-3.2-0.7-3.2-3.2
		C462.4,458.2,462.4,426.7,462.4,395.3z"/>
	<path class="st3" d="M1231.5,527.2c0,7.4-0.1,14.7,0,22.1c0,2.3-0.1,3.6-2.5,3.6c-2.3,0-2.4-1.3-2.4-3.4c0.1-10.5,0-21,0.1-31.5
		c0-1.1-0.8-3.1,1-3.3c1.5-0.1,3.1-0.8,4.3,1.5c3.6,7.1,7.5,14,11.2,21c0.5,1,1.1,2,2.2,3.9c0-8.3,0.1-15.6-0.1-22.9
		c-0.1-3,0.7-3.8,3-3.7c1.8,0.1,1.9,1,1.9,2.7c0,10.8,0,21.5-0.1,32.3c0,1.1,0.7,2.9-0.8,3.1c-1.5,0.2-3.2,1-4.4-1.3
		c-2.1-4.1-4.3-8.2-6.5-12.2c-2.2-4-4.4-8.1-6.5-12.1C1231.9,527.1,1231.7,527.1,1231.5,527.2z"/>
	<path class="st3" d="M872.4,533.5c0,2.3,0.1,4.5,0,6.8c-0.4,7.3-5.6,12.4-12.8,12.7c-7.9,0.3-13.5-4.1-14.4-11.6
		c-0.7-5.2-0.7-10.5,0-15.7c0.9-6.9,6.3-11.4,13.5-11.4c7.4,0,12.9,4.8,13.6,11.8C872.6,528.5,872.4,531,872.4,533.5
		C872.4,533.5,872.4,533.5,872.4,533.5z M866.4,533.5C866.4,533.5,866.3,533.5,866.4,533.5c0-2.5,0.2-5-0.1-7.5
		c-0.5-3.9-3.5-6.5-7.4-6.6c-3.9-0.1-6.9,2.2-7.6,6.2c-0.9,5.2-0.9,10.4,0,15.6c0.7,4.3,3.7,6.5,7.9,6.4c3.9-0.2,6.8-2.7,7.2-6.7
		C866.6,538.5,866.4,536,866.4,533.5z"/>
	<path class="st3" d="M1185.3,533.4c-0.2,3.2,0.2,6.2-0.5,9.2c-1.4,6.4-6.7,10.4-13.7,10.3c-6.7-0.1-12-4.3-13-10.6
		c-0.9-5.8-0.9-11.7,0-17.5c1-6.3,6.4-10.4,13.2-10.5c6.8-0.1,12.1,3.9,13.5,10.1C1185.5,527.4,1185.1,530.5,1185.3,533.4z
		 M1179.1,533.6c0-2.4,0.2-4.7,0-7.1c-0.5-4.3-3.3-6.9-7.4-7c-4.1-0.2-7.2,2.2-7.8,6.5c-0.8,5.1-0.8,10.2,0,15.2
		c0.7,4.3,3.6,6.6,7.8,6.5c4.1-0.1,6.9-2.6,7.4-7C1179.3,538.3,1179.1,535.9,1179.1,533.6z"/>
	<path class="st3" d="M982.8,528.7c0,3.8-0.1,7.5,0,11.3c0.2,4.9,3,7.8,7.7,7.8c4.8,0,7.9-2.9,8-8c0.2-7.3,0.3-14.5,0-21.8
		c-0.1-3.3,1.2-3.7,3.8-3.5c1.6,0.1,2.2,0.6,2.2,2.2c-0.1,8,0.2,16-0.2,24c-0.4,7.8-6.4,12.6-14.6,12.3c-7.6-0.3-12.8-5.5-12.9-13.2
		c-0.1-7.5,0.1-15-0.1-22.5c-0.1-2.6,1-2.7,3.1-2.8c2.3-0.1,3.1,0.6,3,2.9C982.7,521.2,982.8,524.9,982.8,528.7
		C982.8,528.7,982.8,528.7,982.8,528.7z"/>
	<path class="st3" d="M814.6,518.4c-1.9,2.5-3.4,4.3-6.7,2c-2.5-1.7-5.8-1.6-8.7-0.5c-2.3,0.9-3.5,2.7-3.5,5.2c0,2.5,1.3,4,3.6,4.7
		c2.3,0.6,4.6,0.9,7,1.3c6.3,1.1,9.6,4.4,9.8,10c0.2,5.7-2.9,9.8-9,11.2c-5.8,1.4-11.5,0.9-16.5-2.7c-0.9-0.6-2.7-1.4-0.9-2.8
		c1.1-0.9,1.7-3.5,4.1-1.7c3.2,2.5,6.9,2.8,10.7,2.4c3.7-0.5,5.7-2.6,5.6-5.8c-0.1-3.7-2.4-4.9-5.6-5.4c-2.2-0.3-4.5-0.5-6.7-1.1
		c-5.2-1.3-7.9-4.6-8.1-9.5c-0.2-5,2.4-9.1,7.2-10.7C803.4,513.2,809.4,513.9,814.6,518.4z"/>
	<path class="st3" d="M919.9,531c0,4.3,0.2,8.5-0.1,12.8c-0.2,2.9,0.6,4,3.7,3.8c4.1-0.3,8.3,0,12.4-0.1c1.7,0,2.9,0.1,2.7,2.3
		c-0.1,1.7,0.1,3.1-2.5,3c-6.5-0.2-13-0.1-19.5,0c-1.9,0-2.6-0.6-2.6-2.5c0.1-11.1,0.1-22.3,0-33.4c0-2.7,1.5-2.2,3.1-2.3
		c1.9-0.1,2.9,0.2,2.8,2.6C919.8,521.7,919.9,526.3,919.9,531z"/>
	<path class="st3" d="M1057,514.5c3.8,0,7.5,0.1,11.3,0c1.9-0.1,2.3,0.8,2.2,2.4c-0.1,1.5,0.3,3-2.2,2.9c-2.7-0.1-6.4-1.3-7.9,0.5
		c-1.8,2.1-0.5,5.7-0.5,8.7c-0.1,7-0.1,14,0,21c0.1,2.6-1.2,2.6-3.2,2.7c-2.2,0.1-2.7-0.8-2.7-2.8c0.1-9-0.1-18,0.1-27
		c0.1-2.7-0.8-3.5-3.4-3.2c-1.5,0.2-3-0.1-4.5,0.1c-2,0.2-2.9-0.3-2.9-2.6c0-2.1,0.6-2.8,2.8-2.7
		C1049.8,514.7,1053.4,514.5,1057,514.5z"/>
	<path class="st3" d="M1116,533.7c0,5.4-0.1,10.8,0,16.2c0.1,2.3-0.5,3.1-2.9,3c-2-0.1-3.2-0.1-3.1-2.8c0.2-11,0.1-22,0-33.1
		c0-2.4,1-2.5,2.9-2.5c1.9,0,3.3-0.1,3.2,2.7C1115.8,522.7,1116,528.2,1116,533.7z"/>
	<path class="st0" d="M546,354.3c0-9,0.1-18-0.1-26.9c-0.1-2.7,0.8-3.3,3.3-3.1c6.2,0.3,12.5-0.5,18.7,0.6
		c8.9,1.6,13.9,6.2,15.4,15.1c1.7,9.8,1.8,19.7,0,29.4c-1.9,10.1-8,15.1-18.6,15.5c-5.5,0.2-11,0-16.4,0.1c-1.9,0-2.4-0.6-2.3-2.4
		C546.1,373.1,546,363.7,546,354.3z"/>
	<path class="st0" d="M661.9,395.1c0-17.2,0-34.4,0-51.6c0-7.7,2.6-14,10.1-17.3c7.6-3.3,15-2.7,21.7,2.4c4.8,3.6,6,9,6.2,14.6
		c0.2,4.3,0.1,8.5,0.1,12.8c0,29.3,0,58.5,0,87.8c0,2.1,0,4.2-0.3,6.2c-1.3,10.7-9,17-20,16.4C669,466,662,458.8,661.9,448
		C661.8,430.4,661.9,412.7,661.9,395.1C661.9,395.1,661.9,395.1,661.9,395.1z"/>
	<path class="st0" d="M1014,397.7c0-18.1-0.1-33.9,1.3-49.6c0.6-6.3,1.4-12.6,3.9-18.5c3.7-8.6,10-12.8,19.2-12.7
		c9.1,0.1,15.3,4.5,18.8,12.8c2.6,6.1,3.6,12.7,4,19.2c1.9,31,1.9,62,0,93c-0.4,6.2-1.3,12.4-3.6,18.3c-3.7,9.4-10,13.8-19.8,13.7
		c-9.4-0.1-15.8-4.7-19.2-14.1c-2.9-8-3.5-16.5-4-24.9C1013.9,421.7,1013.9,408.5,1014,397.7z"/>
	<path class="st0" d="M909.9,531.1c0,2.2,0.2,4.4,0,6.5c-0.4,3.5-2.9,5.8-6.3,5.9c-3.7,0.2-6.3-1.8-6.9-5.6c-0.8-4.5-0.8-9.1,0-13.7
		c0.6-3.5,3.2-5.5,6.7-5.5c3.4,0.1,6.1,2.3,6.5,5.7C910.1,526.7,909.9,528.9,909.9,531.1C909.9,531.1,909.9,531.1,909.9,531.1z"/>
	<path class="st0" d="M1183.6,531.2c0,2.1,0.2,4.2,0,6.2c-0.4,3.8-2.9,6-6.5,6.1c-3.6,0.1-6.2-1.9-6.8-5.7c-0.7-4.4-0.7-8.9,0-13.4
		c0.6-3.8,3.3-5.8,6.8-5.7c3.6,0.1,6,2.4,6.5,6.2C1183.8,527,1183.6,529.1,1183.6,531.2z"/>
	<path class="st3" d="M1303.5,518.4c-1.9,2.5-3.4,4.3-6.7,2c-2.5-1.7-5.8-1.6-8.7-0.5c-2.3,0.9-3.5,2.7-3.5,5.2c0,2.5,1.3,4,3.6,4.7
		c2.3,0.6,4.6,0.9,7,1.3c6.3,1.1,9.6,4.4,9.8,10c0.2,5.7-2.9,9.8-9,11.2c-5.8,1.4-11.5,0.9-16.5-2.7c-0.9-0.6-2.7-1.4-0.9-2.8
		c1.1-0.9,1.7-3.5,4.1-1.7c3.2,2.5,6.9,2.8,10.7,2.4c3.7-0.5,5.7-2.6,5.6-5.8c-0.1-3.7-2.4-4.9-5.6-5.4c-2.2-0.3-4.5-0.5-6.7-1.1
		c-5.2-1.3-7.9-4.6-8.1-9.5c-0.2-5,2.4-9.1,7.2-10.7C1292.3,513.2,1298.3,513.9,1303.5,518.4z"/>
</g>
</svg>
